<svg width="563" height="510" viewBox="0 0 563 510" fill="none" xmlns="http://www.w3.org/2000/svg">
<g filter="url(#filter0_f_4592_28545)">
<ellipse cx="281.5" cy="255" rx="94" ry="67.5" fill="url(#paint0_radial_4592_28545)"/>
</g>
<g filter="url(#filter1_f_4592_28545)">
<ellipse cx="281.5" cy="255" rx="94" ry="67.5" fill="url(#paint1_radial_4592_28545)"/>
</g>
<g filter="url(#filter2_f_4592_28545)">
<path d="M230.402 271.28L229.963 270.841L214.621 255.5L229.963 240.159L230.402 239.72V217.402H252.72L253.159 216.963L268.5 201.621L283.841 216.963L284.28 217.402H306.598V239.72L322.378 255.5L306.598 271.28V293.598H284.28L268.5 309.378L252.72 293.598H230.402V271.28Z" stroke="white" stroke-opacity="0.48" stroke-width="3"/>
</g>
<g filter="url(#filter3_f_4592_28545)">
<path d="M247.372 264.251L246.934 263.812L238.621 255.5L246.934 247.188L247.372 246.749V234.372H259.749L260.188 233.934L268.5 225.621L276.812 233.934L277.251 234.372H289.628V246.749L290.066 247.188L298.378 255.5L290.066 263.812L289.628 264.251V276.628H277.251L276.812 277.066L268.5 285.378L260.188 277.066L259.749 276.628H247.372V264.251Z" stroke="white" stroke-opacity="0.48" stroke-width="3"/>
</g>
<g filter="url(#filter4_f_4592_28545)">
<path d="M138.402 333.28L137.963 332.841L122.621 317.5L137.963 302.159L138.402 301.72V279.402H160.72L161.159 278.963L176.5 263.621L191.841 278.963L192.28 279.402H214.598V301.72L230.378 317.5L214.598 333.28V355.598H192.28L176.5 371.378L160.72 355.598H138.402V333.28Z" stroke="white" stroke-opacity="0.48" stroke-width="3"/>
</g>
<g filter="url(#filter5_f_4592_28545)">
<path d="M155.372 326.251L154.934 325.812L146.621 317.5L154.934 309.188L155.372 308.749V296.372H167.749L168.188 295.934L176.5 287.621L184.812 295.934L185.251 296.372H197.628V308.749L198.066 309.188L206.378 317.5L198.066 325.812L197.628 326.251V338.628H185.251L184.812 339.066L176.5 347.378L168.188 339.066L167.749 338.628H155.372V326.251Z" stroke="white" stroke-opacity="0.48" stroke-width="3"/>
</g>
<path d="M307.439 268.939H308.061V269.561L308.5 270L308.061 270.439V271.061H307.439L307 271.5L306.561 271.061H305.939V270.439L305.5 270L305.939 269.561V268.939H306.561L307 268.5L307.439 268.939Z" fill="white"/>
<path d="M281.439 311.939H282.061V312.561L282.5 313L282.061 313.439V314.061H281.439L281 314.5L280.561 314.061H279.939V313.439L279.5 313L279.939 312.561V311.939H280.561L281 311.5L281.439 311.939Z" fill="white"/>
<path d="M319.793 285.793H320.207V286.207L320.5 286.5L320.207 286.793V287.207H319.793L319.5 287.5L319.207 287.207H318.793V286.793L318.5 286.5L318.793 286.207V285.793H319.207L319.5 285.5L319.793 285.793Z" fill="white"/>
<path d="M286.793 292.793H287.207V293.207L287.5 293.5L287.207 293.793V294.207H286.793L286.5 294.5L286.207 294.207H285.793V293.793L285.5 293.5L285.793 293.207V292.793H286.207L286.5 292.5L286.793 292.793Z" fill="white"/>
<path d="M275.086 273.086H275.914V273.914L276.5 274.5L275.914 275.086V275.914H275.086L274.5 276.5L273.914 275.914H273.086V275.086L272.5 274.5L273.086 273.914V273.086H273.914L274.5 272.5L275.086 273.086Z" fill="white"/>
<path d="M314.086 309.086H314.914V309.914L315.5 310.5L314.914 311.086V311.914H314.086L313.5 312.5L312.914 311.914H312.086V311.086L311.5 310.5L312.086 309.914V309.086H312.914L313.5 308.5L314.086 309.086Z" fill="white"/>
<path d="M249.439 299.939H250.061V300.561L250.5 301L250.061 301.439V302.061H249.439L249 302.5L248.561 302.061H247.939V301.439L247.5 301L247.939 300.561V299.939H248.561L249 299.5L249.439 299.939Z" fill="white"/>
<path d="M244.793 281.793H245.207V282.207L245.5 282.5L245.207 282.793V283.207H244.793L244.5 283.5L244.207 283.207H243.793V282.793L243.5 282.5L243.793 282.207V281.793H244.207L244.5 281.5L244.793 281.793Z" fill="white"/>
<path d="M235.732 267.232H236.768V268.268L237.5 269L236.768 269.732V270.768H235.732L235 271.5L234.268 270.768H233.232V269.732L232.5 269L233.232 268.268V267.232H234.268L235 266.5L235.732 267.232Z" fill="white"/>
<path d="M244.732 318.232H245.768V319.268L246.5 320L245.768 320.732V321.768H244.732L244 322.5L243.268 321.768H242.232V320.732L241.5 320L242.232 319.268V318.232H243.268L244 317.5L244.732 318.232Z" fill="white"/>
<path d="M221.793 288.793H222.207V289.207L222.5 289.5L222.207 289.793V290.207H221.793L221.5 290.5L221.207 290.207H220.793V289.793L220.5 289.5L220.793 289.207V288.793H221.207L221.5 288.5L221.793 288.793Z" fill="white"/>
<path d="M208.251 277.639L208.411 277.039L209.011 277.2L209.55 276.889L209.86 277.427L210.46 277.588L210.299 278.188L210.61 278.726L210.072 279.037L209.911 279.637L209.311 279.476L208.773 279.787L208.462 279.248L207.862 279.088L208.023 278.488L207.712 277.95L208.251 277.639Z" fill="white"/>
<path d="M203.882 309.962L204.096 309.163L204.896 309.377L205.614 308.963L206.028 309.68L206.828 309.894L206.614 310.694L207.028 311.412L206.31 311.826L206.096 312.626L205.296 312.412L204.578 312.826L204.164 312.109L203.364 311.894L203.578 311.094L203.164 310.377L203.882 309.962Z" fill="white"/>
<path d="M223.184 341.686L223.345 341.086L223.945 341.247L224.483 340.936L224.794 341.474L225.394 341.635L225.233 342.235L225.544 342.773L225.006 343.084L224.845 343.684L224.245 343.523L223.707 343.834L223.396 343.295L222.796 343.135L222.957 342.535L222.646 341.996L223.184 341.686Z" fill="white"/>
<path d="M204.452 341.477L204.559 341.077L204.959 341.185L205.318 340.977L205.525 341.336L205.925 341.443L205.817 341.843L206.025 342.202L205.666 342.409L205.559 342.809L205.159 342.702L204.8 342.909L204.593 342.55L204.193 342.443L204.3 342.043L204.093 341.684L204.452 341.477Z" fill="white"/>
<path d="M188.044 346.462L188.312 345.462L189.312 345.73L190.209 345.212L190.727 346.109L191.727 346.377L191.459 347.377L191.977 348.274L191.08 348.792L190.812 349.792L189.812 349.524L188.915 350.042L188.397 349.145L187.397 348.877L187.665 347.877L187.147 346.98L188.044 346.462Z" fill="white"/>
<path d="M205.262 365.507L205.369 365.107L205.769 365.214L206.128 365.007L206.335 365.365L206.735 365.473L206.628 365.873L206.835 366.231L206.476 366.439L206.369 366.839L205.969 366.731L205.61 366.939L205.403 366.58L205.003 366.473L205.111 366.073L204.903 365.714L205.262 365.507Z" fill="white"/>
<defs>
<filter id="filter0_f_4592_28545" x="124.7" y="124.7" width="313.6" height="260.6" filterUnits="userSpaceOnUse" color-interpolation-filters="sRGB">
<feFlood flood-opacity="0" result="BackgroundImageFix"/>
<feBlend mode="normal" in="SourceGraphic" in2="BackgroundImageFix" result="shape"/>
<feGaussianBlur stdDeviation="31.4" result="effect1_foregroundBlur_4592_28545"/>
</filter>
<filter id="filter1_f_4592_28545" x="0" y="0" width="563" height="510" filterUnits="userSpaceOnUse" color-interpolation-filters="sRGB">
<feFlood flood-opacity="0" result="BackgroundImageFix"/>
<feBlend mode="normal" in="SourceGraphic" in2="BackgroundImageFix" result="shape"/>
<feGaussianBlur stdDeviation="93.75" result="effect1_foregroundBlur_4592_28545"/>
</filter>
<filter id="filter2_f_4592_28545" x="209.2" y="196.2" width="118.6" height="118.6" filterUnits="userSpaceOnUse" color-interpolation-filters="sRGB">
<feFlood flood-opacity="0" result="BackgroundImageFix"/>
<feBlend mode="normal" in="SourceGraphic" in2="BackgroundImageFix" result="shape"/>
<feGaussianBlur stdDeviation="1.65" result="effect1_foregroundBlur_4592_28545"/>
</filter>
<filter id="filter3_f_4592_28545" x="233.2" y="220.2" width="70.6" height="70.6" filterUnits="userSpaceOnUse" color-interpolation-filters="sRGB">
<feFlood flood-opacity="0" result="BackgroundImageFix"/>
<feBlend mode="normal" in="SourceGraphic" in2="BackgroundImageFix" result="shape"/>
<feGaussianBlur stdDeviation="1.65" result="effect1_foregroundBlur_4592_28545"/>
</filter>
<filter id="filter4_f_4592_28545" x="117.2" y="258.2" width="118.6" height="118.6" filterUnits="userSpaceOnUse" color-interpolation-filters="sRGB">
<feFlood flood-opacity="0" result="BackgroundImageFix"/>
<feBlend mode="normal" in="SourceGraphic" in2="BackgroundImageFix" result="shape"/>
<feGaussianBlur stdDeviation="1.65" result="effect1_foregroundBlur_4592_28545"/>
</filter>
<filter id="filter5_f_4592_28545" x="141.2" y="282.2" width="70.6" height="70.6" filterUnits="userSpaceOnUse" color-interpolation-filters="sRGB">
<feFlood flood-opacity="0" result="BackgroundImageFix"/>
<feBlend mode="normal" in="SourceGraphic" in2="BackgroundImageFix" result="shape"/>
<feGaussianBlur stdDeviation="1.65" result="effect1_foregroundBlur_4592_28545"/>
</filter>
<radialGradient id="paint0_radial_4592_28545" cx="0" cy="0" r="1" gradientUnits="userSpaceOnUse" gradientTransform="translate(335 255.5) rotate(180) scale(143 199.141)">
<stop stop-color="#C5EBD4"/>
<stop offset="1" stop-color="#CFF0AC"/>
</radialGradient>
<radialGradient id="paint1_radial_4592_28545" cx="0" cy="0" r="1" gradientUnits="userSpaceOnUse" gradientTransform="translate(335 255.5) rotate(180) scale(143 199.141)">
<stop stop-color="#7EFFB1"/>
<stop offset="1" stop-color="#C1FF7F"/>
</radialGradient>
</defs>
</svg>
