<svg width="563" height="510" viewBox="0 0 563 510" fill="none" xmlns="http://www.w3.org/2000/svg">
<g filter="url(#filter0_f_4592_28571)">
<ellipse cx="281.5" cy="255" rx="94" ry="67.5" transform="rotate(180 281.5 255)" fill="url(#paint0_radial_4592_28571)"/>
</g>
<g filter="url(#filter1_f_4592_28571)">
<ellipse cx="281.5" cy="255" rx="94" ry="67.5" transform="rotate(180 281.5 255)" fill="url(#paint1_radial_4592_28571)"/>
</g>
<g filter="url(#filter2_f_4592_28571)">
<path d="M332.598 238.72L333.037 239.159L348.379 254.5L333.037 269.841L332.598 270.28L332.598 292.598L310.28 292.598L309.841 293.037L294.5 308.379L279.159 293.037L278.72 292.598L256.402 292.598L256.402 270.28L240.622 254.5L256.402 238.72L256.402 216.402L278.72 216.402L294.5 200.622L310.28 216.402L332.598 216.402L332.598 238.72Z" stroke="white" stroke-opacity="0.48" stroke-width="3"/>
</g>
<g filter="url(#filter3_f_4592_28571)">
<path d="M315.628 245.749L316.066 246.188L324.379 254.5L316.066 262.812L315.628 263.251L315.628 275.628L303.251 275.628L302.812 276.066L294.5 284.379L286.188 276.066L285.749 275.628L273.372 275.628L273.372 263.251L272.934 262.812L264.622 254.5L272.934 246.188L273.372 245.749L273.372 233.372L285.749 233.372L286.188 232.934L294.5 224.622L302.812 232.934L303.251 233.372L315.628 233.372L315.628 245.749Z" stroke="white" stroke-opacity="0.48" stroke-width="3"/>
</g>
<g filter="url(#filter4_f_4592_28571)">
<path d="M424.598 176.72L425.037 177.159L440.379 192.5L425.037 207.841L424.598 208.28L424.598 230.598L402.28 230.598L401.841 231.037L386.5 246.379L371.159 231.037L370.72 230.598L348.402 230.598L348.402 208.28L332.622 192.5L348.402 176.72L348.402 154.402L370.72 154.402L386.5 138.622L402.28 154.402L424.598 154.402L424.598 176.72Z" stroke="white" stroke-opacity="0.48" stroke-width="3"/>
</g>
<g filter="url(#filter5_f_4592_28571)">
<path d="M407.628 183.749L408.066 184.188L416.379 192.5L408.066 200.812L407.628 201.251L407.628 213.628L395.251 213.628L394.812 214.066L386.5 222.379L378.188 214.066L377.749 213.628L365.372 213.628L365.372 201.251L364.934 200.812L356.622 192.5L364.934 184.188L365.372 183.749L365.372 171.372L377.749 171.372L378.188 170.934L386.5 162.622L394.812 170.934L395.251 171.372L407.628 171.372L407.628 183.749Z" stroke="white" stroke-opacity="0.48" stroke-width="3"/>
</g>
<path d="M255.561 241.061L254.939 241.061L254.939 240.439L254.5 240L254.939 239.561L254.939 238.939L255.561 238.939L256 238.5L256.439 238.939L257.061 238.939L257.061 239.561L257.5 240L257.061 240.439L257.061 241.061L256.439 241.061L256 241.5L255.561 241.061Z" fill="white"/>
<path d="M281.561 198.061L280.939 198.061L280.939 197.439L280.5 197L280.939 196.561L280.939 195.939L281.561 195.939L282 195.5L282.439 195.939L283.061 195.939L283.061 196.561L283.5 197L283.061 197.439L283.061 198.061L282.439 198.061L282 198.5L281.561 198.061Z" fill="white"/>
<path d="M243.207 224.207L242.793 224.207L242.793 223.793L242.5 223.5L242.793 223.207L242.793 222.793L243.207 222.793L243.5 222.5L243.793 222.793L244.207 222.793L244.207 223.207L244.5 223.5L244.207 223.793L244.207 224.207L243.793 224.207L243.5 224.5L243.207 224.207Z" fill="white"/>
<path d="M276.207 217.207L275.793 217.207L275.793 216.793L275.5 216.5L275.793 216.207L275.793 215.793L276.207 215.793L276.5 215.5L276.793 215.793L277.207 215.793L277.207 216.207L277.5 216.5L277.207 216.793L277.207 217.207L276.793 217.207L276.5 217.5L276.207 217.207Z" fill="white"/>
<path d="M287.914 236.914L287.086 236.914L287.086 236.086L286.5 235.5L287.086 234.914L287.086 234.086L287.914 234.086L288.5 233.5L289.086 234.086L289.914 234.086L289.914 234.914L290.5 235.5L289.914 236.086L289.914 236.914L289.086 236.914L288.5 237.5L287.914 236.914Z" fill="white"/>
<path d="M248.914 200.914L248.086 200.914L248.086 200.086L247.5 199.5L248.086 198.914L248.086 198.086L248.914 198.086L249.5 197.5L250.086 198.086L250.914 198.086L250.914 198.914L251.5 199.5L250.914 200.086L250.914 200.914L250.086 200.914L249.5 201.5L248.914 200.914Z" fill="white"/>
<path d="M313.561 210.061L312.939 210.061L312.939 209.439L312.5 209L312.939 208.561L312.939 207.939L313.561 207.939L314 207.5L314.439 207.939L315.061 207.939L315.061 208.561L315.5 209L315.061 209.439L315.061 210.061L314.439 210.061L314 210.5L313.561 210.061Z" fill="white"/>
<path d="M318.207 228.207L317.793 228.207L317.793 227.793L317.5 227.5L317.793 227.207L317.793 226.793L318.207 226.793L318.5 226.5L318.793 226.793L319.207 226.793L319.207 227.207L319.5 227.5L319.207 227.793L319.207 228.207L318.793 228.207L318.5 228.5L318.207 228.207Z" fill="white"/>
<path d="M327.268 242.768L326.232 242.768L326.232 241.732L325.5 241L326.232 240.268L326.232 239.232L327.268 239.232L328 238.5L328.732 239.232L329.768 239.232L329.768 240.268L330.5 241L329.768 241.732L329.768 242.768L328.732 242.768L328 243.5L327.268 242.768Z" fill="white"/>
<path d="M318.268 191.768L317.232 191.768L317.232 190.732L316.5 190L317.232 189.268L317.232 188.232L318.268 188.232L319 187.5L319.732 188.232L320.768 188.232L320.768 189.268L321.5 190L320.768 190.732L320.768 191.768L319.732 191.768L319 192.5L318.268 191.768Z" fill="white"/>
<path d="M341.207 221.207L340.793 221.207L340.793 220.793L340.5 220.5L340.793 220.207L340.793 219.793L341.207 219.793L341.5 219.5L341.793 219.793L342.207 219.793L342.207 220.207L342.5 220.5L342.207 220.793L342.207 221.207L341.793 221.207L341.5 221.5L341.207 221.207Z" fill="white"/>
<path d="M354.749 232.361L354.589 232.961L353.989 232.8L353.45 233.111L353.14 232.573L352.54 232.412L352.701 231.812L352.39 231.274L352.928 230.963L353.089 230.363L353.689 230.524L354.227 230.213L354.538 230.752L355.138 230.912L354.977 231.512L355.288 232.05L354.749 232.361Z" fill="white"/>
<path d="M359.118 200.038L358.904 200.837L358.104 200.623L357.386 201.037L356.972 200.32L356.172 200.106L356.386 199.306L355.972 198.588L356.69 198.174L356.904 197.374L357.704 197.588L358.422 197.174L358.836 197.891L359.636 198.106L359.422 198.906L359.836 199.623L359.118 200.038Z" fill="white"/>
<path d="M339.816 168.314L339.655 168.914L339.055 168.753L338.517 169.064L338.206 168.526L337.606 168.365L337.767 167.765L337.456 167.227L337.994 166.916L338.155 166.316L338.755 166.477L339.293 166.166L339.604 166.705L340.204 166.865L340.043 167.465L340.354 168.004L339.816 168.314Z" fill="white"/>
<path d="M358.548 168.523L358.441 168.923L358.041 168.815L357.682 169.023L357.475 168.664L357.075 168.557L357.183 168.157L356.975 167.798L357.334 167.591L357.441 167.191L357.841 167.298L358.2 167.091L358.407 167.45L358.807 167.557L358.7 167.957L358.907 168.316L358.548 168.523Z" fill="white"/>
<path d="M374.956 163.538L374.688 164.538L373.688 164.27L372.791 164.788L372.273 163.891L371.273 163.623L371.541 162.623L371.023 161.726L371.92 161.208L372.188 160.208L373.188 160.476L374.085 159.958L374.603 160.855L375.603 161.123L375.335 162.123L375.853 163.02L374.956 163.538Z" fill="white"/>
<path d="M357.738 144.493L357.631 144.893L357.231 144.786L356.872 144.993L356.665 144.635L356.265 144.527L356.372 144.127L356.165 143.769L356.524 143.561L356.631 143.161L357.031 143.269L357.39 143.061L357.597 143.42L357.997 143.527L357.889 143.927L358.097 144.286L357.738 144.493Z" fill="white"/>
<defs>
<filter id="filter0_f_4592_28571" x="124.7" y="124.7" width="313.6" height="260.6" filterUnits="userSpaceOnUse" color-interpolation-filters="sRGB">
<feFlood flood-opacity="0" result="BackgroundImageFix"/>
<feBlend mode="normal" in="SourceGraphic" in2="BackgroundImageFix" result="shape"/>
<feGaussianBlur stdDeviation="31.4" result="effect1_foregroundBlur_4592_28571"/>
</filter>
<filter id="filter1_f_4592_28571" x="0" y="0" width="563" height="510" filterUnits="userSpaceOnUse" color-interpolation-filters="sRGB">
<feFlood flood-opacity="0" result="BackgroundImageFix"/>
<feBlend mode="normal" in="SourceGraphic" in2="BackgroundImageFix" result="shape"/>
<feGaussianBlur stdDeviation="93.75" result="effect1_foregroundBlur_4592_28571"/>
</filter>
<filter id="filter2_f_4592_28571" x="235.2" y="195.2" width="118.6" height="118.6" filterUnits="userSpaceOnUse" color-interpolation-filters="sRGB">
<feFlood flood-opacity="0" result="BackgroundImageFix"/>
<feBlend mode="normal" in="SourceGraphic" in2="BackgroundImageFix" result="shape"/>
<feGaussianBlur stdDeviation="1.65" result="effect1_foregroundBlur_4592_28571"/>
</filter>
<filter id="filter3_f_4592_28571" x="259.2" y="219.2" width="70.6" height="70.6" filterUnits="userSpaceOnUse" color-interpolation-filters="sRGB">
<feFlood flood-opacity="0" result="BackgroundImageFix"/>
<feBlend mode="normal" in="SourceGraphic" in2="BackgroundImageFix" result="shape"/>
<feGaussianBlur stdDeviation="1.65" result="effect1_foregroundBlur_4592_28571"/>
</filter>
<filter id="filter4_f_4592_28571" x="327.2" y="133.2" width="118.6" height="118.6" filterUnits="userSpaceOnUse" color-interpolation-filters="sRGB">
<feFlood flood-opacity="0" result="BackgroundImageFix"/>
<feBlend mode="normal" in="SourceGraphic" in2="BackgroundImageFix" result="shape"/>
<feGaussianBlur stdDeviation="1.65" result="effect1_foregroundBlur_4592_28571"/>
</filter>
<filter id="filter5_f_4592_28571" x="351.2" y="157.2" width="70.6" height="70.6" filterUnits="userSpaceOnUse" color-interpolation-filters="sRGB">
<feFlood flood-opacity="0" result="BackgroundImageFix"/>
<feBlend mode="normal" in="SourceGraphic" in2="BackgroundImageFix" result="shape"/>
<feGaussianBlur stdDeviation="1.65" result="effect1_foregroundBlur_4592_28571"/>
</filter>
<radialGradient id="paint0_radial_4592_28571" cx="0" cy="0" r="1" gradientUnits="userSpaceOnUse" gradientTransform="translate(335 255.5) rotate(180) scale(143 199.141)">
<stop stop-color="#EBEAC5"/>
<stop offset="1" stop-color="#FFFAB0"/>
</radialGradient>
<radialGradient id="paint1_radial_4592_28571" cx="0" cy="0" r="1" gradientUnits="userSpaceOnUse" gradientTransform="translate(335 255.5) rotate(180) scale(143 199.141)">
<stop stop-color="#FFFB90"/>
<stop offset="1" stop-color="#FBD13A"/>
</radialGradient>
</defs>
</svg>
